<svg width="40" height="40" viewBox="0 0 40 40" fill="none" xmlns="http://www.w3.org/2000/svg">
<g clip-path="url(#clip0_20005153_5776)">
<path d="M38.4376 34.1365C39.3007 34.1365 40.0001 33.437 40.0001 32.5743C40.0001 31.7112 39.3007 31.0118 38.4376 31.0118H34.1414V26.7155C34.1414 25.8528 33.4419 25.1533 32.5792 25.1533C31.7161 25.1533 31.0167 25.8528 31.0167 26.7155V31.0118H26.7204C25.8577 31.0118 25.1582 31.7112 25.1582 32.5743C25.1582 33.437 25.8577 34.1365 26.7204 34.1365H31.0167V38.4327C31.0167 39.2958 31.7161 39.9952 32.5792 39.9952C33.4419 39.9952 34.1414 39.2958 34.1414 38.4327V34.1365H38.4376Z" fill="#D946EF"/>
<path d="M23.1612 26.2186C22.1831 25.5362 21.1379 24.9802 20.0448 24.5554C21.4989 23.2337 22.4636 21.3821 22.6314 19.3094C24.8366 17.1607 27.7273 15.9827 30.826 15.9827C33.2451 15.9827 35.5678 16.7111 37.5436 18.089C38.2516 18.5828 39.2251 18.4094 39.7188 17.7014C40.2123 16.9937 40.039 16.0199 39.3313 15.5264C38.3532 14.8441 37.3076 14.2883 36.2145 13.8632C37.8191 12.4048 38.828 10.3018 38.828 7.96784C38.828 3.57422 35.2538 0 30.8602 0C26.4669 0 22.8927 3.57422 22.8927 7.96784C22.8927 10.2924 23.8933 12.3877 25.487 13.8455C25.2688 13.9294 25.0518 14.0183 24.8369 14.1129C23.8592 14.5432 22.94 15.0723 22.0852 15.6937C20.9063 12.7649 18.0361 10.6921 14.6905 10.6921C10.2971 10.6921 6.72261 14.2664 6.72261 18.6597C6.72261 20.9778 7.71779 23.0673 9.30288 24.5245C5.0649 26.1124 1.62862 29.5227 0.22969 33.8721C-0.234178 35.3143 0.0114888 36.8439 0.903823 38.0686C1.79616 39.2929 3.17677 39.9951 4.69167 39.9951H18.2839C19.1466 39.9951 19.8461 39.2957 19.8461 38.4326C19.8461 37.5699 19.1466 36.8704 18.2839 36.8704H4.69167C4.1866 36.8704 3.7264 36.6364 3.42885 36.228C3.1313 35.8197 3.04952 35.3098 3.20393 34.8288C4.74812 30.0278 9.4576 26.6748 14.6563 26.6748C17.0751 26.6748 19.3981 27.4033 21.3738 28.7811C22.0815 29.2749 23.0553 29.1013 23.5491 28.3936C24.0426 27.6859 23.8692 26.712 23.1612 26.2186ZM30.8602 3.1247C33.5308 3.1247 35.7033 5.29724 35.7033 7.96784C35.7033 10.6381 33.5308 12.811 30.8602 12.811C28.1899 12.811 26.0171 10.6381 26.0171 7.96784C26.0171 5.29724 28.1899 3.1247 30.8602 3.1247ZM14.6905 13.8165C17.361 13.8165 19.5336 15.9894 19.5336 18.6597C19.5336 21.3303 17.361 23.5028 14.6905 23.5028C12.0199 23.5028 9.84731 21.3303 9.84731 18.6597C9.84731 15.9894 12.0199 13.8165 14.6905 13.8165Z" fill="#6366F1"/>
</g>
<defs>
<clipPath id="clip0_20005153_5776">
<rect width="40" height="40" fill="white"/>
</clipPath>
</defs>
</svg>
