<svg width="40" height="40" viewBox="0 0 40 40" fill="none" xmlns="http://www.w3.org/2000/svg">
<g clip-path="url(#clip0_20005153_5713)">
<path d="M36.6043 23.9511C36.2809 23.1512 35.3701 22.7646 34.5701 23.0882C33.77 23.4116 33.3836 24.3223 33.707 25.1224L35.5473 29.6744L30.0818 27.2651C29.6862 27.0907 29.236 27.088 28.8383 27.2577C26.9705 28.0546 24.9696 28.4587 22.8911 28.4587C14.5261 28.4587 8.90677 21.9091 8.90677 15.7918C8.90677 8.80733 15.1801 3.12499 22.8911 3.12499C30.6021 3.12499 36.8755 8.80733 36.8755 15.7918C36.8755 16.3368 36.8247 16.9893 36.7363 17.5819C36.609 18.4354 37.1977 19.2305 38.0512 19.3579C38.9048 19.4855 39.6998 18.8965 39.8271 18.043C39.9389 17.2938 40.0005 16.4943 40.0005 15.7918C40.0005 11.5473 38.2031 7.56467 34.9393 4.57757C31.7142 1.6257 27.4353 0 22.8911 0C18.3469 0 14.0682 1.6257 10.8429 4.57749C7.92638 7.24686 6.18201 10.7115 5.84365 14.4474C2.17515 16.8768 0.000540376 20.7696 0.000540376 24.9628C0.000540376 27.5822 0.825773 30.0675 2.39663 32.2063L0.114446 37.8518C-0.123913 38.4413 0.0188216 39.1166 0.475461 39.5592C0.773039 39.8478 1.16515 40 1.56335 40C1.77608 39.9999 1.99061 39.9566 2.19327 39.8672L8.77365 36.9664C10.429 37.5826 12.1787 37.8945 13.9848 37.8945C14.0239 37.8945 14.0622 37.8915 14.1006 37.8887C16.7129 37.8689 19.2525 37.1818 21.452 35.8959C23.4221 34.7441 25.0428 33.1617 26.1789 31.2931C27.2882 31.0938 28.3724 30.7929 29.4248 30.3906L37.8077 34.0859C38.0104 34.1752 38.2248 34.2188 38.4376 34.2188C38.8358 34.2187 39.228 34.0665 39.5255 33.778C39.9822 33.3353 40.1249 32.6602 39.8866 32.0706L36.6043 23.9511ZM13.985 34.7656C13.9636 34.7656 13.9429 34.7679 13.9217 34.7688C12.3262 34.7606 10.7906 34.447 9.35646 33.8352C8.95888 33.6654 8.50865 33.6681 8.11302 33.8426L4.45389 35.4556L5.63428 32.5356C5.85248 31.9959 5.7524 31.3795 5.37475 30.9364C3.90327 29.2101 3.12553 27.1446 3.12553 24.9628C3.12553 22.4659 4.17592 20.1 6.01373 18.3061C6.58592 21.4253 8.20037 24.409 10.6358 26.7529C13.6663 29.6696 17.6749 31.3592 22.0034 31.5627C19.9712 33.5631 17.0631 34.7656 13.985 34.7656Z" fill="#6366F1"/>
<path d="M22.813 17.4219C23.6759 17.4219 24.3755 16.7223 24.3755 15.8594C24.3755 14.9964 23.6759 14.2969 22.813 14.2969C21.95 14.2969 21.2505 14.9964 21.2505 15.8594C21.2505 16.7223 21.95 17.4219 22.813 17.4219Z" fill="#D946EF"/>
<path d="M29.0625 17.4219C29.9254 17.4219 30.625 16.7223 30.625 15.8594C30.625 14.9964 29.9254 14.2969 29.0625 14.2969C28.1996 14.2969 27.5 14.9964 27.5 15.8594C27.5 16.7223 28.1996 17.4219 29.0625 17.4219Z" fill="#D946EF"/>
<path d="M16.563 17.4219C17.4259 17.4219 18.1255 16.7223 18.1255 15.8594C18.1255 14.9964 17.4259 14.2969 16.563 14.2969C15.7 14.2969 15.0005 14.9964 15.0005 15.8594C15.0005 16.7223 15.7 17.4219 16.563 17.4219Z" fill="#D946EF"/>
</g>
<defs>
<clipPath id="clip0_20005153_5713">
<rect width="40" height="40" fill="white"/>
</clipPath>
</defs>
</svg>
