<svg width="40" height="40" viewBox="0 0 40 40" fill="none" xmlns="http://www.w3.org/2000/svg">
<g clip-path="url(#clip0_20005153_5762)">
<path d="M28.5205 9.60938C28.5187 9.60938 28.5168 9.60938 28.515 9.60938C28.0986 9.60938 27.6993 9.77562 27.4059 10.0713L18.4413 19.1058L15.086 15.7002C14.7948 15.4047 14.398 15.2371 13.9831 15.2344C13.9797 15.2344 13.9764 15.2344 13.973 15.2344C13.5617 15.2344 13.167 15.3966 12.8743 15.6859L6.87009 21.6234C6.2565 22.2302 6.25095 23.2195 6.85775 23.833C7.16337 24.1421 7.56587 24.297 7.96884 24.2969C8.36572 24.2969 8.76291 24.1465 9.06744 23.8454L13.9586 19.0085L17.3245 22.4247C17.6175 22.7221 18.0173 22.8898 18.4348 22.8905C18.4357 22.8905 18.4366 22.8905 18.4375 22.8905C18.854 22.8905 19.2532 22.7243 19.5467 22.4286L28.5072 13.398L30.9144 15.8584C31.5181 16.4752 32.5073 16.4859 33.124 15.8824C33.7408 15.2789 33.7516 14.2897 33.1481 13.6728L29.6319 10.0791C29.3392 9.78008 28.9388 9.61086 28.5205 9.60938Z" fill="#D946EF"/>
<path d="M38.4375 18.9062C39.3005 18.9062 40 18.2067 40 17.3438V4.76562C40 3.90266 39.3005 3.20312 38.4375 3.20312H21.5625V1.5625C21.5625 0.699531 20.863 0 20 0C19.137 0 18.4375 0.699531 18.4375 1.5625V3.20312H1.5625C0.699531 3.20312 0 3.90266 0 4.76562V25.2344C0 28.6806 2.80375 31.4844 6.25 31.4844H18.4375V36.875H13.75C12.887 36.875 12.1875 37.5745 12.1875 38.4375C12.1875 39.3005 12.887 40 13.75 40H26.1719C27.0348 40 27.7344 39.3005 27.7344 38.4375C27.7344 37.5745 27.0348 36.875 26.1719 36.875H21.5625V31.4844H33.75C37.1963 31.4844 40 28.6806 40 25.2344C40 24.3714 39.3005 23.6719 38.4375 23.6719C37.5745 23.6719 36.875 24.3714 36.875 25.2344C36.875 26.9575 35.4731 28.3594 33.75 28.3594H6.25C4.52688 28.3594 3.125 26.9575 3.125 25.2344V6.32812H36.875V17.3438C36.875 18.2067 37.5745 18.9062 38.4375 18.9062Z" fill="#6366F1"/>
</g>
<defs>
<clipPath id="clip0_20005153_5762">
<rect width="40" height="40" fill="white"/>
</clipPath>
</defs>
</svg>
