<svg width="40" height="40" viewBox="0 0 40 40" fill="none" xmlns="http://www.w3.org/2000/svg">
<g clip-path="url(#clip0_20005153_5754)">
<path d="M19.9222 40C19.6826 40 19.4434 39.9451 19.2233 39.8352C19.0405 39.7437 14.6954 37.5406 10.1492 32.5989C7.48444 29.7028 5.29572 26.4551 3.6435 22.9465C1.5799 18.5641 0.355232 13.7662 0.00275426 8.68591C-0.0259322 8.27148 0.111702 7.86285 0.384834 7.55005C0.658272 7.23724 1.04462 7.0459 1.45936 7.01874C4.32099 6.83075 6.56281 4.4342 6.56281 1.5625C6.56281 0.699463 7.26227 0 8.12531 0H31.8753C32.738 0 33.4378 0.699463 33.4378 1.5625C33.4378 4.43237 35.6781 6.82892 38.5382 7.01874C38.9594 7.04651 39.3512 7.24365 39.6246 7.565C39.8984 7.88635 40.0302 8.30475 39.9905 8.72498C39.4562 14.3658 37.8986 19.6417 35.3607 24.4064C34.9548 25.1682 34.0085 25.4565 33.2471 25.051C32.4854 24.6454 32.197 23.699 32.6025 22.9373C34.7284 18.9462 36.1099 14.5578 36.7175 9.87366C33.5181 9.03015 31.0602 6.38428 30.4559 3.125H9.54468C8.93799 6.39832 6.4621 9.05243 3.2428 9.88403C4.06403 17.7667 7.128 24.6588 12.3618 30.3882C15.4947 33.8174 18.5663 35.8408 19.9133 36.6415C21.3873 35.7449 24.9521 33.3356 28.4225 29.158C28.974 28.494 29.9588 28.403 30.6229 28.9545C31.2866 29.5059 31.3779 30.491 30.8264 31.1548C25.8875 37.1002 20.8463 39.7198 20.6339 39.8285C20.4105 39.9429 20.1663 40 19.9222 40Z" fill="#6366F1"/>
<path d="M21.1306 31.5444C21.651 30.8556 21.5145 29.876 20.8264 29.3557C19.4754 28.3349 18.197 27.1773 17.0263 25.9157C13.6227 22.2463 11.3134 17.9351 10.1535 13.0883C10.7785 12.6055 11.3665 12.0721 11.9094 11.4947C12.8097 10.5367 13.5785 9.46707 14.1943 8.31473C14.6008 7.55362 14.3133 6.60696 13.5522 6.20017C12.7911 5.79367 11.8444 6.08115 11.438 6.84225C10.9518 7.75168 10.3445 8.59671 9.63284 9.35416C9.00539 10.0216 8.30227 10.6139 7.5436 11.1153C7.01138 11.4669 6.74618 12.1068 6.87405 12.7321C8.06362 18.5491 10.7083 23.6999 14.7354 28.041C16.0299 29.4366 17.4453 30.718 18.9422 31.849C19.2242 32.062 19.555 32.1648 19.8831 32.1648C20.3561 32.1648 20.8236 31.9509 21.1306 31.5444Z" fill="#D946EF"/>
</g>
<defs>
<clipPath id="clip0_20005153_5754">
<rect width="40" height="40" fill="white"/>
</clipPath>
</defs>
</svg>
