<svg width="374" height="354" viewBox="0 0 374 354" fill="none" xmlns="http://www.w3.org/2000/svg">
<path d="M101.747 301.51C101.747 301.51 110.719 300.237 110.973 302.311C111.228 304.384 104.871 307.658 104.871 307.658C104.871 307.658 104.362 305.003 103.454 303.693C102.546 302.383 101.747 301.51 101.747 301.51Z" fill="white"/>
<path d="M72.2616 322.393C80.253 320.683 102.121 315.481 97.2894 300.675C91.986 284.414 72.7338 284.887 63.1804 287.47C53.6632 290.053 36.9538 301.621 42.0393 314.535C47.5243 328.431 64.6697 323.993 72.2616 322.393Z" fill="white"/>
<path d="M58.6035 324.868C51.7744 324.868 44.7274 322.795 41.5308 314.682C40.0051 310.826 40.2594 306.825 42.2573 302.787C46.144 295.075 55.8428 288.854 63.0351 286.89C72.6612 284.307 92.3492 283.798 97.798 300.459C98.9604 304.06 98.7061 307.37 96.9988 310.317C92.204 318.684 77.2744 321.849 72.3706 322.904C72.0073 322.976 71.6441 323.049 71.2808 323.122C68.0479 323.85 63.362 324.868 58.6035 324.868ZM73.7146 286.635C69.7915 286.635 66.1227 287.217 63.3257 287.981C57.3684 289.582 47.1974 295.402 43.238 303.296C41.3491 307.043 41.1312 310.717 42.5479 314.282C47.6333 327.16 62.8898 323.85 71.0629 322.067C71.4625 321.994 71.8257 321.921 72.1526 321.849C84.9753 319.12 93.0394 315.083 96.0544 309.808C97.58 307.152 97.8343 304.133 96.7446 300.822C93.1484 289.727 82.7958 286.635 73.7146 286.635Z" fill="#0B0F19"/>
<path d="M86.6821 320.465C92.821 320.465 97.7612 315.481 97.7612 309.37C97.7612 303.258 92.7847 298.274 86.6821 298.274C80.5795 298.274 75.603 303.258 75.603 309.37C75.603 315.481 80.5432 320.465 86.6821 320.465Z" fill="white"/>
<path d="M86.6811 321.011C80.2516 321.011 75.0571 315.773 75.0571 309.371C75.0571 302.968 80.2879 297.73 86.6811 297.73C93.0742 297.73 98.305 302.968 98.305 309.371C98.305 315.773 93.1106 321.011 86.6811 321.011ZM86.6811 298.785C80.8691 298.785 76.1469 303.514 76.1469 309.334C76.1469 315.155 80.8691 319.884 86.6811 319.884C92.493 319.884 97.2153 315.155 97.2153 309.334C97.2153 303.514 92.493 298.785 86.6811 298.785Z" fill="#0B0F19"/>
<path d="M77.1297 303.698C77.1297 303.698 75.6404 295.658 77.1297 295.113C78.619 294.567 82.7237 298.969 82.7237 298.969C82.7237 298.969 80.7985 299.66 79.5998 300.788C78.4011 301.952 77.1297 303.698 77.1297 303.698Z" fill="white"/>
<path d="M77.1298 304.243C77.0934 304.243 77.0571 304.243 77.0208 304.243C76.8028 304.207 76.6575 304.025 76.6212 303.807C76.6212 303.734 76.258 301.733 76.04 299.66C75.6768 295.622 76.2943 294.821 76.9481 294.603C78.6554 293.985 82.1063 297.513 83.1234 298.605C83.2323 298.75 83.305 298.932 83.2687 299.114C83.2323 299.296 83.087 299.441 82.9054 299.514C82.8691 299.514 81.0529 300.169 79.9631 301.224C78.837 302.315 77.5657 304.025 77.5657 304.061C77.4567 304.171 77.3114 304.243 77.1298 304.243ZM77.3114 295.622C77.3114 295.622 76.7665 296.058 77.1298 299.732C77.2387 300.715 77.3477 301.66 77.4567 302.388C77.9289 301.806 78.5828 301.042 79.2003 300.424C79.9994 299.66 81.0529 299.114 81.743 298.787C80.0358 297.004 77.9289 295.367 77.3114 295.622Z" fill="#0B0F19"/>
<path d="M97.6525 308.204C97.5798 308.204 97.5072 308.168 97.3982 308.132C97.2529 308.059 97.1439 307.913 97.1076 307.732C97.1076 307.695 96.599 305.149 95.7636 303.948C94.8918 302.675 94.1289 301.838 94.1289 301.802C93.9836 301.656 93.9473 301.438 94.02 301.256C94.0926 301.074 94.2742 300.929 94.4559 300.893C95.2187 300.783 101.939 299.874 103.755 301.256C104.155 301.547 104.264 301.911 104.3 302.166C104.591 304.494 98.9965 307.513 97.9067 308.059C97.8341 308.204 97.7251 308.204 97.6525 308.204ZM95.5819 301.911C95.8725 302.275 96.2721 302.784 96.6717 303.366C97.3255 304.348 97.7978 305.913 98.0157 306.822C100.377 305.513 103.319 303.403 103.21 302.348C103.21 302.311 103.21 302.275 103.065 302.166C102.12 301.475 98.3426 301.62 95.5819 301.911Z" fill="#0B0F19"/>
<path d="M46.979 297.367C46.979 297.367 36.8444 306.825 39.4234 318.175C42.1841 330.252 64.5602 338.328 74.1863 326.25C81.8872 316.574 68.9192 311.19 65.0324 317.301C59.5474 325.887 35.9726 326.541 46.979 297.367Z" fill="#565973"/>
<path d="M60.819 332.763C59.0754 332.763 57.2591 332.545 55.4066 332.145C47.1245 330.253 40.3318 324.578 38.8788 318.321C37.789 313.556 38.7698 308.354 41.7484 303.297C43.9642 299.478 46.507 297.113 46.5796 297.04C46.7612 296.858 47.0518 296.858 47.2698 297.004C47.4877 297.149 47.5604 297.404 47.4877 297.659C43.0198 309.482 43.8553 317.994 49.7762 320.977C54.4621 323.341 61.7997 321.413 64.5604 317.121C65.8318 315.156 68.0839 314.101 70.663 314.283C73.351 314.502 75.7121 316.066 76.6566 318.249C77.71 320.686 76.9835 323.669 74.6224 326.652C71.4258 330.617 66.4856 332.763 60.819 332.763ZM45.5625 299.732C42.8382 303.043 38.1159 310.136 39.9685 318.03C41.3125 323.887 47.7783 329.235 55.6608 331.054C63.0711 332.727 69.8275 330.799 73.7506 325.888C76.4386 322.505 76.257 320.031 75.6395 318.576C74.8403 316.757 72.8425 315.447 70.554 315.266C68.4108 315.084 66.4856 315.957 65.4685 317.594C62.3809 322.396 54.5348 324.469 49.304 321.85C46.3617 320.358 44.4728 317.63 43.8189 313.883C43.1288 310.1 43.71 305.334 45.5625 299.732Z" fill="#0B0F19"/>
<path d="M68.6304 310.572C68.4125 310.572 68.1945 310.426 68.1219 310.208C68.0129 309.917 68.1582 309.626 68.4488 309.517C72.6988 307.952 79.4189 309.007 79.7095 309.044C80.0001 309.08 80.2181 309.371 80.1454 309.662C80.1091 309.953 79.8185 310.171 79.5279 310.099C79.4552 310.099 72.8078 309.044 68.812 310.499C68.7394 310.572 68.7031 310.572 68.6304 310.572Z" fill="#0B0F19"/>
<path d="M100.014 318.724C99.8687 318.724 99.6871 318.651 99.5781 318.542C98.779 317.56 94.4926 315.086 92.8944 314.213C92.6401 314.067 92.5311 313.74 92.6764 313.485C92.8217 313.231 93.1486 313.122 93.4029 313.267C94.0204 313.595 99.3238 316.541 100.414 317.851C100.595 318.069 100.559 318.433 100.341 318.615C100.268 318.687 100.159 318.724 100.014 318.724Z" fill="#0B0F19"/>
<path d="M69.5006 313.959C69.2826 313.959 69.101 313.85 68.992 313.631C68.8467 313.377 68.992 313.049 69.2463 312.904C73.4237 310.903 79.3446 311.012 79.5989 311.012C79.8895 311.012 80.1438 311.267 80.1438 311.558C80.1438 311.849 79.8895 312.067 79.5989 312.103C79.5262 312.103 73.6416 311.994 69.7185 313.886C69.6459 313.922 69.5732 313.959 69.5006 313.959Z" fill="#0B0F19"/>
<path d="M98.596 324.357C98.378 324.357 98.1601 324.211 98.0874 323.957C97.143 320.756 91.7306 316.39 91.6579 316.318C91.44 316.136 91.4037 315.772 91.5853 315.554C91.7669 315.335 92.1302 315.299 92.3481 315.481C92.5661 315.663 98.0874 320.137 99.1409 323.629C99.2135 323.92 99.0682 324.211 98.7776 324.321C98.705 324.357 98.6323 324.357 98.596 324.357Z" fill="#0B0F19"/>
<path d="M100.402 194.856C100.112 194.856 99.8574 194.601 99.8574 194.31C99.8574 194.019 100.112 193.765 100.402 193.765L286.858 191.946C287.148 191.946 287.403 192.2 287.403 192.491C287.403 192.782 287.148 193.037 286.858 193.037L100.402 194.856Z" fill="#565973"/>
<path d="M232.589 295.04L274.98 294.531L271.565 307.336L232.625 307.445V295.04H232.589Z" fill="white"/>
<path d="M232.588 307.992C232.443 307.992 232.297 307.919 232.188 307.846C232.079 307.737 232.043 307.592 232.043 307.446V295.041C232.043 294.75 232.297 294.496 232.588 294.496L274.979 293.986C275.161 293.986 275.306 294.059 275.415 294.205C275.524 294.35 275.56 294.532 275.524 294.677L272.109 307.482C272.037 307.737 271.819 307.883 271.601 307.883L232.588 307.992ZM233.133 295.587V306.9L271.129 306.791L274.252 295.078L233.133 295.587Z" fill="#0B0F19"/>
<path d="M131.895 137.926C131.895 137.926 118.927 156.115 121.87 170.811C124.812 185.508 141.667 195.221 167.712 194.311C165.496 216.356 169.492 295.66 169.492 295.66L232.624 295.041L269.276 294.532V187.872L218.131 148.366C218.131 148.366 193.72 138.581 131.895 137.926Z" fill="#0B0F19"/>
<path d="M169.455 296.205C169.165 296.205 168.91 295.987 168.91 295.696C168.874 294.896 165.024 217.52 167.094 194.893C154.707 195.257 143.919 193.184 135.855 188.928C127.863 184.671 122.814 178.451 121.325 170.957C119.763 163.245 122.632 154.587 125.284 148.694C128.154 142.328 131.423 137.708 131.459 137.671C131.568 137.526 131.75 137.453 131.895 137.453C192.231 138.072 217.259 147.493 218.312 147.894C218.348 147.93 218.421 147.93 218.457 147.966L269.603 187.472C269.748 187.582 269.821 187.727 269.821 187.909V294.568C269.821 294.859 269.567 295.114 269.276 295.114L232.624 295.623L169.455 296.205ZM167.675 193.766C167.821 193.766 167.966 193.839 168.075 193.948C168.184 194.057 168.22 194.202 168.22 194.384C166.15 215.192 169.637 288.202 169.964 295.114L232.551 294.496L268.695 293.986V188.127L217.84 148.839C216.169 148.221 191.286 139.127 132.186 138.472C130.697 140.618 119.726 157.279 122.415 170.666C123.831 177.869 128.662 183.798 136.4 187.909C144.391 192.202 155.216 194.202 167.675 193.766Z" fill="#0B0F19"/>
<path d="M232.588 295.583C232.297 295.583 232.043 295.364 232.043 295.037L229.464 187.213L196.989 157.638C196.771 157.42 196.735 157.093 196.953 156.874C197.171 156.656 197.498 156.62 197.716 156.838L230.336 186.595C230.445 186.704 230.517 186.85 230.517 186.995L233.096 295.073C233.133 295.328 232.915 295.583 232.588 295.583Z" fill="#0B0F19"/>
<path d="M164.407 295.696L241.162 295.041L238.219 307.41L168.33 307.664L164.407 295.696Z" fill="white"/>
<path d="M168.294 308.209C168.076 308.209 167.858 308.064 167.786 307.845L163.863 295.877C163.826 295.695 163.826 295.513 163.935 295.404C164.044 295.295 164.189 295.186 164.371 295.186L241.125 294.531C241.307 294.531 241.452 294.604 241.561 294.749C241.67 294.895 241.707 295.04 241.67 295.222L238.728 307.591C238.655 307.845 238.437 308.027 238.183 308.027L168.294 308.209ZM165.134 296.241L168.694 307.118L237.784 306.863L240.472 295.586L165.134 296.241Z" fill="#0B0F19"/>
<path d="M265.572 307.444V315.92L287.911 331.781L232.589 332.254V307.444H265.572Z" fill="white"/>
<path d="M232.588 332.8C232.443 332.8 232.297 332.728 232.188 332.655C232.079 332.546 232.043 332.4 232.043 332.255V307.445C232.043 307.154 232.297 306.899 232.588 306.899H265.571C265.861 306.899 266.116 307.154 266.116 307.445V315.666L288.201 331.345C288.383 331.491 288.492 331.745 288.419 331.964C288.347 332.182 288.129 332.327 287.911 332.364L232.588 332.8ZM233.133 307.991V331.709L286.203 331.236L265.244 316.358C265.099 316.248 265.026 316.103 265.026 315.921V307.954H233.133V307.991Z" fill="#0B0F19"/>
<path d="M169.893 307.661L232.589 307.406V316.719L254.784 331.961L170.437 333.016L169.893 307.661Z" fill="white"/>
<path d="M170.437 333.563C170.146 333.563 169.892 333.308 169.892 333.017L169.347 307.698C169.347 307.553 169.383 307.407 169.492 307.298C169.601 307.189 169.746 307.116 169.892 307.116L232.588 306.861C232.734 306.861 232.879 306.934 232.988 307.007C233.097 307.116 233.133 307.262 233.133 307.407V316.429L255.074 331.489C255.255 331.635 255.364 331.853 255.291 332.108C255.219 332.326 255.001 332.508 254.783 332.508L170.437 333.563C170.473 333.563 170.437 333.563 170.437 333.563ZM170.437 308.207L170.982 332.435L253.039 331.453L232.262 317.193C232.116 317.084 232.007 316.938 232.007 316.756V307.989L170.437 308.207Z" fill="#0B0F19"/>
<path d="M181.295 125.117L182.893 106.928L181.622 87.8297L182.893 106.928L196.842 96.4876C196.842 96.4876 178.68 71.1323 170.615 69.8591C166.039 73.1695 162.37 67.822 162.37 67.822C162.37 67.822 137.705 68.6223 131.094 92.1223C145.406 96.7058 155.759 99.5069 155.759 99.5069L158.701 88.2298L152.271 119.26L181.295 125.117Z" fill="white"/>
<path d="M181.296 125.661C181.26 125.661 181.223 125.661 181.187 125.661L152.2 119.768C152.054 119.731 151.945 119.658 151.836 119.549C151.727 119.44 151.727 119.295 151.764 119.149L155.723 100.051C155.687 100.051 155.687 100.051 155.651 100.051C155.542 100.015 145.08 97.2134 130.95 92.6662C130.659 92.5935 130.514 92.2661 130.586 92.0114C134.037 79.6794 142.501 73.6043 149.003 70.6941C156.014 67.5656 162.116 67.311 162.371 67.311C162.552 67.311 162.734 67.3837 162.843 67.5292C162.843 67.5656 164.514 69.9302 166.875 70.3303C168.037 70.5122 169.2 70.2212 170.326 69.4209C170.435 69.3481 170.58 69.3117 170.725 69.3117C178.935 70.6213 196.552 95.1035 197.315 96.1585C197.497 96.4131 197.424 96.7405 197.206 96.9224L183.475 107.217L181.877 125.188C181.877 125.333 181.768 125.479 181.659 125.588C181.514 125.624 181.405 125.661 181.296 125.661ZM152.926 118.785L180.787 124.46L182.349 106.926L181.078 87.8644V87.828C181.078 87.537 181.296 87.3187 181.586 87.2823C181.877 87.2459 182.131 87.5006 182.168 87.7916L183.366 105.871L196.08 96.3404C193.683 93.03 178.027 71.9309 170.762 70.4031C169.454 71.2761 168.074 71.6035 166.693 71.3853C164.369 70.9851 162.661 69.0571 162.116 68.3659C160.845 68.4387 155.396 68.948 149.403 71.6399C140.467 75.6778 134.546 82.4077 131.785 91.7204C143.845 95.5764 153.144 98.1593 155.396 98.7777L158.193 88.0099C158.266 87.7189 158.557 87.537 158.847 87.6097C159.138 87.6825 159.319 87.9735 159.247 88.2645L152.926 118.785Z" fill="#0B0F19"/>
<path d="M131.098 92.0875C131.098 92.0875 122.343 131.885 124.051 134.831C125.758 137.778 173.452 147.454 185.912 147.891C198.371 148.327 194.702 129.811 190.888 127.665C187.111 125.519 152.275 119.225 152.275 119.225L155.762 99.4721L131.098 92.0875Z" fill="white"/>
<path d="M186.347 148.438C186.202 148.438 186.02 148.438 185.875 148.438C179.155 148.183 163.426 145.455 150.822 142.835C143.048 141.235 124.813 137.233 123.578 135.123C123.251 134.578 122.416 133.123 126.375 112.278C128.337 102.092 130.516 92.0886 130.552 92.0159C130.589 91.8704 130.661 91.7248 130.807 91.6521C130.952 91.5793 131.097 91.543 131.243 91.6157L155.943 99.0004C156.198 99.0731 156.379 99.3278 156.307 99.6188L152.929 118.826C157.505 119.663 187.582 125.192 191.179 127.229C193.903 128.757 196.082 136.797 194.557 142.29C193.721 145.091 191.651 148.438 186.347 148.438ZM131.497 92.7798C128.119 108.131 123.36 132.541 124.522 134.541C125.14 135.487 133.749 138.143 151.149 141.781C163.681 144.363 179.3 147.092 185.911 147.346C189.871 147.492 192.414 145.673 193.467 141.962C194.157 139.561 194.121 136.469 193.358 133.45C192.704 130.831 191.614 128.721 190.597 128.139C187.655 126.466 164.153 121.918 152.166 119.772C151.875 119.736 151.657 119.445 151.73 119.154L155.144 99.9098L131.497 92.7798Z" fill="#0B0F19"/>
<path d="M183.439 106.639L194.482 98.2358L203.055 112.787L194.518 127.847L181.333 124.973L183.439 106.639Z" fill="white"/>
<path d="M194.518 128.391C194.481 128.391 194.445 128.391 194.409 128.391L181.223 125.517C180.932 125.444 180.751 125.19 180.787 124.935L182.93 106.601C182.93 106.455 183.039 106.31 183.148 106.237L194.191 97.8338C194.3 97.7246 194.481 97.6883 194.627 97.7246C194.772 97.761 194.917 97.8338 194.99 97.9793L203.563 112.53C203.672 112.712 203.672 112.894 203.563 113.076L194.99 128.136C194.881 128.282 194.699 128.391 194.518 128.391ZM181.913 124.571L194.227 127.227L202.436 112.785L194.336 99.0342L183.947 106.928L181.913 124.571Z" fill="#0B0F19"/>
<path d="M183.913 69.9333C191.941 67.2414 188.745 51.9991 184.458 45.8877C176.866 35.0471 158.159 36.9024 153.292 51.5626C152.238 54.7638 145.7 56.1826 148.242 61.2755C150.022 64.8405 157.142 62.9852 157.142 62.9852C157.142 62.9852 179.119 71.534 183.913 69.9333Z" fill="#0B0F19"/>
<path d="M182.351 70.6599C175.667 70.6599 159.067 64.3302 157.105 63.5662C155.943 63.8573 149.55 65.1669 147.77 61.5291C145.954 57.8549 148.387 55.8178 150.349 54.1444C151.439 53.235 152.456 52.3619 152.783 51.3797C155.071 44.4316 160.701 39.6297 167.821 38.5748C174.65 37.5562 181.189 40.2482 184.894 45.5229C188.236 50.252 190.597 59.6011 188.708 65.3851C187.872 67.9316 186.31 69.6413 184.058 70.3689C183.622 70.5871 183.041 70.6599 182.351 70.6599ZM157.142 62.4749C157.214 62.4749 157.287 62.4749 157.323 62.5113C162.808 64.6212 176.83 69.6049 182.278 69.6049C182.86 69.6049 183.368 69.5322 183.731 69.423C185.62 68.7682 186.964 67.3495 187.691 65.1305C189.434 59.783 187.182 50.7249 184.022 46.2141C180.535 41.2667 174.396 38.7567 168.003 39.7025C161.283 40.6847 156.015 45.1955 153.836 51.7435C153.4 53.0531 152.238 54.0353 151.075 55.0175C149.077 56.7272 147.334 58.1823 148.751 61.0562C149.55 62.6568 151.693 62.9842 153.364 62.9478C155.289 62.9478 156.996 62.4749 156.996 62.4749C157.069 62.4749 157.105 62.4749 157.142 62.4749Z" fill="#0B0F19"/>
<path d="M162.373 67.8253L164.298 62.3322C164.298 62.3322 162.3 59.5675 162.373 58.0033C162.446 56.439 159.358 57.5304 160.157 54.3291C160.993 51.1279 165.025 54.6929 167.023 55.5296C169.02 56.3663 172.762 54.4019 174.723 54.2564C176.067 54.1472 177.411 55.4568 177.775 56.2935C178.537 58.0397 177.484 60.5133 175.45 61.6774C173.416 62.8779 170.401 63.0598 170.401 63.0598L170.11 70.1898C170.11 70.1898 169.674 71.6813 165.751 70.59C161.828 69.4623 162.373 67.8253 162.373 67.8253Z" fill="white"/>
<path d="M168.222 71.5003C167.568 71.5003 166.696 71.3912 165.606 71.1002C163.717 70.5909 162.519 69.827 162.01 68.9175C161.647 68.2627 161.792 67.7534 161.829 67.6443L163.645 62.4059C163.136 61.642 161.683 59.4593 161.792 57.9678C161.792 57.7859 161.756 57.7132 161.138 57.4585C160.339 57.1311 158.995 56.5855 159.613 54.1845C159.831 53.3842 160.23 52.8386 160.811 52.6203C162.119 52.0746 163.935 53.166 165.534 54.1118C166.151 54.4756 166.769 54.8393 167.205 55.0212C168.331 55.4578 170.22 54.8757 171.891 54.3664C172.908 54.039 173.888 53.748 174.651 53.7116C176.25 53.6025 177.775 55.0212 178.247 56.0762C179.119 58.0406 177.957 60.8417 175.705 62.1513C174.07 63.0971 171.891 63.4609 170.91 63.57L170.619 70.1907C170.619 70.2271 170.619 70.2635 170.583 70.2999C170.619 70.4454 170.256 71.5003 168.222 71.5003ZM162.882 67.9717C162.882 68.0808 162.773 69.1722 165.897 70.0452C168.44 70.7364 169.384 70.2999 169.566 70.0088L169.856 63.0243C169.856 62.7333 170.074 62.515 170.365 62.515C170.401 62.515 173.271 62.3331 175.16 61.2054C176.94 60.1505 177.92 57.9678 177.267 56.5127C176.94 55.7852 175.777 54.7302 174.76 54.803C174.106 54.8393 173.198 55.1304 172.254 55.4214C170.401 56.0034 168.294 56.6582 166.805 56.0398C166.297 55.8215 165.643 55.4578 164.989 55.0576C163.754 54.33 162.047 53.3115 161.211 53.6389C161.102 53.6753 160.811 53.7844 160.63 54.4756C160.267 55.9307 160.775 56.1489 161.538 56.4763C162.083 56.6946 162.918 57.0584 162.846 58.0406C162.773 59.0228 163.935 60.9872 164.662 62.0057C164.771 62.1513 164.807 62.3331 164.735 62.515L162.882 67.9717Z" fill="#0B0F19"/>
<path d="M373.455 149.276H8.28144C7.99085 149.276 7.73657 149.021 7.73657 148.73C7.73657 148.439 7.99085 148.185 8.28144 148.185H373.455C373.746 148.185 374 148.439 374 148.73C374 149.021 373.782 149.276 373.455 149.276Z" fill="#0B0F19"/>
<path d="M99.857 148.561L48.7346 345.239L49.7892 345.514L100.912 148.836L99.857 148.561Z" fill="#565973"/>
<path d="M55.2667 148.536L54.2312 148.876L121.319 353.818L122.354 353.478L55.2667 148.536Z" fill="#565973"/>
<path d="M283.487 148.546L282.453 148.891L350.635 353.821L351.669 353.476L283.487 148.546Z" fill="#565973"/>
<path d="M329.197 148.542L278.082 342.489L279.136 342.768L330.251 148.82L329.197 148.542Z" fill="#565973"/>
<path d="M28.8403 124.898C28.6223 124.898 28.4044 124.753 28.3317 124.571C28.2591 124.389 21.4663 107.51 12.1309 103.254C11.8403 103.145 11.7313 102.817 11.8766 102.526C11.9856 102.235 12.3125 102.126 12.6031 102.271C16.7078 104.163 20.7762 108.419 24.6993 114.931C27.6052 119.769 29.3488 124.098 29.3852 124.171C29.4941 124.462 29.3488 124.753 29.0946 124.862C28.9856 124.898 28.9129 124.898 28.8403 124.898Z" fill="#0B0F19"/>
<path d="M12.3531 102.744C12.3531 102.744 4.97919 91.0303 2.0732 94.4134C-1.95885 99.0698 12.3531 102.744 12.3531 102.744Z" fill="#565973"/>
<path d="M12.3523 103.291C12.316 103.291 12.2797 103.291 12.207 103.291C11.1899 103 2.0724 100.563 0.910007 96.8886C0.619408 95.9064 0.837357 94.9606 1.6365 94.0875C2.14505 93.5055 2.7989 93.2145 3.56172 93.2872C5.12369 93.3964 7.15788 94.997 9.62797 98.0527C11.4079 100.272 12.7519 102.382 12.8246 102.491C12.9335 102.673 12.9335 102.927 12.7882 103.109C12.6793 103.218 12.534 103.291 12.3523 103.291ZM3.34377 94.3422C2.98052 94.3422 2.68992 94.4877 2.43565 94.7787C1.9271 95.3971 1.74548 95.9792 1.9271 96.5612C2.61727 98.8167 7.88438 100.854 11.0446 101.836C9.15575 99.0713 5.59591 94.5241 3.41642 94.3786C3.41642 94.3422 3.3801 94.3422 3.34377 94.3422Z" fill="#0B0F19"/>
<path d="M21.8652 111.618C19.2498 105.943 11.6216 116.748 11.6216 116.748C11.6216 116.748 23.3182 114.71 21.8652 111.618Z" fill="#565973"/>
<path d="M12.1541 117.295C11.9724 117.295 11.7908 117.186 11.6818 117.041C11.5729 116.859 11.5729 116.604 11.6818 116.422C12.2267 115.658 16.9489 109.11 20.4724 109.438C21.5259 109.547 22.325 110.202 22.8699 111.402C23.1242 111.911 23.0878 112.493 22.8336 113.003C21.4532 115.622 13.1711 117.15 12.2267 117.295C12.2267 117.295 12.1904 117.295 12.1541 117.295ZM20.2182 110.493C18.184 110.493 15.1327 113.767 13.4254 115.913C16.7673 115.222 21.1263 113.876 21.8528 112.457C21.9618 112.239 21.9618 112.057 21.8891 111.839C21.4895 111.002 21.0173 110.565 20.3635 110.529C20.3271 110.493 20.2908 110.493 20.2182 110.493Z" fill="#0B0F19"/>
<path d="M34.1453 81.2839C35.5256 98.636 39.376 124.646 39.376 124.646L34.1453 81.2839Z" fill="#0B0F19"/>
<path d="M39.338 125.23C39.0837 125.23 38.8294 125.048 38.7931 124.757C38.7568 124.503 34.9427 98.5292 33.5623 81.3589C33.526 81.0679 33.7803 80.8132 34.0709 80.7769C34.3615 80.7405 34.6157 80.9951 34.6521 81.2861C35.9961 98.42 39.8465 124.357 39.8828 124.612C39.9192 124.903 39.7375 125.194 39.4106 125.23C39.4106 125.23 39.3743 125.23 39.338 125.23Z" fill="#0B0F19"/>
<path d="M33.2738 64.8394C35.4533 64.6211 41.9554 83.974 33.9277 83.0646C26.808 82.2279 33.2738 64.8394 33.2738 64.8394Z" fill="#565973"/>
<path d="M34.4716 83.6108C34.29 83.6108 34.072 83.6108 33.8904 83.5744C32.619 83.4289 31.6382 82.8105 31.0207 81.7555C28.1874 77.1356 32.619 65.1309 32.8006 64.6216C32.8733 64.4398 33.0549 64.2942 33.2729 64.2579C33.8541 64.1851 34.4353 64.658 35.0891 65.7494C37.0143 68.8778 39.884 78.2269 37.5229 81.9738C36.7964 83.0651 35.7793 83.6108 34.4716 83.6108ZM33.5998 65.6038C33.2365 66.6588 32.4737 68.987 31.8925 71.6425C30.8754 76.2261 30.8754 79.5365 31.9288 81.2099C32.4011 81.9738 33.0912 82.4103 33.9994 82.5195C35.743 82.7377 36.7601 81.8647 37.1596 79.9003C38.0677 75.2076 34.9801 67.0226 33.5998 65.6038Z" fill="#0B0F19"/>
<path d="M35.0904 91.7963C34.9088 91.7963 34.7271 91.6871 34.6182 91.5416C34.5819 91.4689 30.913 85.3938 25.0284 84.9209C19.2528 84.4843 18.1267 84.8481 18.0904 84.8845C17.8361 85.03 17.5092 84.9209 17.3639 84.6299C17.2186 84.3752 17.3639 84.0114 17.6181 83.9023C17.7998 83.7932 19.0348 83.3566 25.1011 83.8295C31.5306 84.3388 35.381 90.7049 35.5263 90.9596C35.6716 91.2142 35.5989 91.5416 35.3447 91.7235C35.272 91.7963 35.163 91.7963 35.0904 91.7963Z" fill="#0B0F19"/>
<path d="M17.6175 83.7246C16.4914 76.3763 5.59399 85.1797 5.59399 85.1797C5.59399 85.1797 18.3803 88.7447 17.6175 83.7246Z" fill="#565973"/>
<path d="M13.4396 86.9604C12.5314 86.9604 11.478 86.8877 10.3156 86.7058C7.73655 86.342 5.52073 85.7236 5.41176 85.7236C5.23014 85.6872 5.04851 85.5053 5.01219 85.3234C4.97586 85.1052 5.04851 84.9233 5.19381 84.7778C5.48441 84.5595 12.3135 79.1029 15.9823 80.5216C17.1447 80.9945 17.8712 82.0495 18.1255 83.6501C18.2708 84.5959 18.0165 85.3962 17.3626 85.9419C16.6361 86.5967 15.2921 86.9604 13.4396 86.9604ZM6.7921 84.9597C9.73442 85.6508 15.0742 86.5603 16.6725 85.1416C17.0357 84.8142 17.1447 84.414 17.072 83.832C16.8904 82.5951 16.4182 81.8676 15.619 81.5402C13.4032 80.6671 9.08057 83.2863 6.7921 84.9597Z" fill="#0B0F19"/>
<path d="M36.0333 100.237C35.9606 100.237 35.8517 100.2 35.779 100.164C35.5247 100.018 35.4158 99.691 35.5247 99.4364C35.6337 99.1818 38.7213 93.1431 46.3495 88.9232C52.0889 85.7584 55.3218 84.7762 55.4308 84.7398C55.7214 84.667 56.012 84.8125 56.1209 85.1036C56.1936 85.3946 56.0483 85.6856 55.7577 85.7947C55.7214 85.7947 52.4884 86.7769 46.8944 89.8691C39.5568 93.9434 36.5418 99.8729 36.5055 99.9093C36.4329 100.128 36.2149 100.237 36.0333 100.237Z" fill="#0B0F19"/>
<path d="M55.9757 85.2882C53.5783 76.5212 73.8112 82.0142 73.8112 82.0142C73.8112 82.0142 57.683 91.5452 55.9757 85.2882Z" fill="#565973"/>
<path d="M59.3907 87.9399C58.6279 87.9399 57.9377 87.8308 57.3566 87.6125C56.3758 87.2124 55.7219 86.4848 55.4313 85.4299C54.9954 83.7565 55.2497 82.4105 56.1942 81.4647C57.7925 79.8641 61.2796 79.3912 66.5831 80.046C70.4335 80.5189 73.8844 81.4647 73.9207 81.4647C74.1386 81.5374 74.2839 81.683 74.3203 81.9012C74.3566 82.1195 74.2476 82.3378 74.066 82.4469C73.6664 82.7015 64.7668 87.9399 59.3907 87.9399ZM62.4057 80.8463C60.0446 80.8463 58.0104 81.21 56.9933 82.2286C56.3031 82.9198 56.1578 83.8656 56.4848 85.1388C56.6664 85.83 57.1023 86.3029 57.7561 86.594C59.4634 87.2851 62.6963 86.6303 67.1279 84.7387C69.2348 83.8292 71.16 82.847 72.3224 82.1922C69.7797 81.5738 65.7839 80.8463 62.4057 80.8463Z" fill="#0B0F19"/>
<path d="M50.6372 125.227C50.3466 125.227 50.0923 125.009 50.0923 124.682C50.0923 124.209 49.7654 113.15 53.9791 109.84C54.2334 109.658 54.5603 109.694 54.7419 109.949C54.9235 110.204 54.8872 110.531 54.6329 110.713C50.8551 113.696 51.1821 124.573 51.1821 124.682C51.1821 124.973 50.9641 125.227 50.6372 125.227Z" fill="#0B0F19"/>
<path d="M68.3607 99.9828C68.3607 99.9828 48.9269 103.912 53.9761 110.278C57.3543 114.57 68.3607 99.9828 68.3607 99.9828Z" fill="#565973"/>
<path d="M55.6124 111.625C54.777 111.625 54.0505 111.297 53.5419 110.606C52.5975 109.442 52.3795 108.242 52.8154 107.041C54.559 102.239 67.7086 99.5473 68.2535 99.4381C68.4715 99.4018 68.6894 99.4745 68.8347 99.6928C68.9437 99.8747 68.9437 100.129 68.7984 100.311C68.4715 100.784 60.262 111.552 55.6124 111.625C55.6488 111.625 55.6488 111.625 55.6124 111.625ZM67.0185 100.857C62.7321 101.875 54.9949 104.349 53.8325 107.441C53.5419 108.242 53.7236 109.078 54.4137 109.951C54.7407 110.351 55.1402 110.533 55.6488 110.533C58.6637 110.497 64.1851 104.349 67.0185 100.857Z" fill="#0B0F19"/>
<path d="M45.804 105.111C50.3446 102.964 51.289 116.206 51.289 116.206C51.289 116.206 41.3723 107.221 45.804 105.111Z" fill="#565973"/>
<path d="M51.326 116.789C51.1807 116.789 51.0717 116.753 50.9627 116.644C50.8901 116.571 49.1465 114.97 47.4392 112.969C45.0417 110.168 43.952 107.986 44.2063 106.458C44.3153 105.658 44.8238 105.003 45.623 104.639C46.4584 104.239 47.2939 104.275 48.0204 104.712C49.3644 105.512 50.4178 107.695 51.1807 111.26C51.7255 113.806 51.8708 116.134 51.9072 116.243C51.9072 116.462 51.7982 116.68 51.6166 116.789C51.4713 116.753 51.3986 116.789 51.326 116.789ZM46.0588 105.621C45.5866 105.839 45.3324 106.167 45.2597 106.603C44.9691 108.677 48.42 112.606 50.6358 114.825C50.2725 111.769 49.2918 106.712 47.4392 105.621C47.0033 105.366 46.5674 105.366 46.0588 105.621Z" fill="#0B0F19"/>
<path d="M56.7775 124.353H23.9036V148.69H56.7775V124.353Z" fill="#D4D7E5"/>
<path d="M56.7765 149.235H23.9025C23.6119 149.235 23.3577 148.981 23.3577 148.69V124.317C23.3577 124.026 23.6119 123.771 23.9025 123.771H56.7765C57.0671 123.771 57.3214 124.026 57.3214 124.317V148.69C57.3214 149.017 57.0671 149.235 56.7765 149.235ZM24.4474 148.144H56.2317V124.862H24.4474V148.144Z" fill="#0B0F19"/>
<path d="M181.297 148.73L214.97 80.3396H305.637L275.814 148.73H181.297Z" fill="url(#paint0_linear_20005153_3936)"/>
<path d="M275.85 149.276H181.296C181.114 149.276 180.933 149.167 180.824 149.022C180.715 148.876 180.715 148.658 180.787 148.476L214.461 80.0859C214.57 79.9041 214.751 79.7949 214.933 79.7949H305.636C305.818 79.7949 305.999 79.9041 306.108 80.0496C306.217 80.1951 306.217 80.4133 306.144 80.5589L276.322 148.949C276.249 149.167 276.067 149.276 275.85 149.276ZM182.168 148.185H275.486L304.837 80.8863H215.332L182.168 148.185Z" fill="#0B0F19"/>
<path d="M251.84 111.257C251.84 111.257 248.353 110.311 245.882 112.057C244.793 112.821 241.414 115.44 243.194 117.659C244.974 119.878 248.28 117.95 249.551 116.022C250.823 114.058 251.84 111.257 251.84 111.257Z" fill="white"/>
<path d="M245.228 119.153C244.248 119.153 243.412 118.753 242.758 117.953C242.25 117.334 242.068 116.607 242.177 115.843C242.431 114.024 244.429 112.351 245.555 111.55C248.207 109.695 251.803 110.641 251.985 110.677C252.13 110.714 252.239 110.823 252.312 110.968C252.384 111.114 252.384 111.259 252.348 111.405C252.312 111.514 251.295 114.315 249.987 116.279C249.079 117.662 247.19 119.081 245.374 119.153C245.337 119.153 245.265 119.153 245.228 119.153ZM249.624 111.55C248.57 111.55 247.263 111.732 246.173 112.496C245.519 112.933 243.449 114.533 243.231 116.061C243.158 116.534 243.303 116.934 243.594 117.334C244.03 117.88 244.611 118.135 245.301 118.098C246.754 118.026 248.316 116.825 249.043 115.697C249.914 114.351 250.677 112.569 251.04 111.66C250.713 111.587 250.205 111.55 249.624 111.55Z" fill="#0B0F19"/>
<path d="M346.502 142.325C346.466 142.325 346.466 142.325 346.43 142.325C346.139 142.289 345.921 141.998 345.958 141.707L357.872 49.4165L303.93 19.9869C303.675 19.8414 303.567 19.514 303.712 19.2594C303.857 19.0047 304.184 18.8956 304.438 19.0411L358.744 48.6526C358.926 48.7617 359.035 48.98 359.035 49.1982L347.047 141.852C347.011 142.143 346.757 142.325 346.502 142.325Z" fill="#565973"/>
<path d="M304.184 19.5166L277.922 30.6482L304.693 47.3092L304.184 19.5166Z" fill="#D4D7E5"/>
<path d="M304.693 47.8537C304.584 47.8537 304.511 47.8173 304.402 47.781L277.631 31.12C277.449 31.0108 277.376 30.829 277.376 30.6107C277.376 30.3924 277.522 30.2469 277.703 30.1378L303.966 19.0062C304.148 18.9335 304.329 18.9698 304.475 19.0426C304.62 19.1517 304.729 19.2972 304.729 19.4791L305.238 47.2717C305.238 47.4536 305.129 47.6718 304.947 47.7446C304.874 47.8173 304.802 47.8537 304.693 47.8537ZM279.12 30.7562L304.148 46.3258L303.676 20.3522L279.12 30.7562Z" fill="#0B0F19"/>
<path d="M290.963 47.0125C294.814 47.0125 297.901 43.884 297.901 40.0644C297.901 36.2083 294.778 33.1162 290.963 33.1162C287.113 33.1162 284.025 36.2447 284.025 40.0644C284.025 43.884 287.113 47.0125 290.963 47.0125Z" fill="white"/>
<path d="M290.963 47.5595C286.822 47.5595 283.48 44.2128 283.48 40.0657C283.48 35.9186 286.822 32.5719 290.963 32.5719C295.104 32.5719 298.446 35.9186 298.446 40.0657C298.446 44.1764 295.104 47.5595 290.963 47.5595ZM290.963 33.6269C287.44 33.6269 284.57 36.5007 284.57 40.0293C284.57 43.558 287.44 46.4318 290.963 46.4318C294.487 46.4318 297.356 43.558 297.356 40.0293C297.356 36.5007 294.487 33.6269 290.963 33.6269Z" fill="#0B0F19"/>
<path d="M363.867 140.833H328.632V148.326H363.903V140.833H363.867Z" fill="#D4D7E5"/>
<path d="M363.867 148.907H328.632C328.341 148.907 328.087 148.653 328.087 148.362V140.868C328.087 140.577 328.341 140.322 328.632 140.322H363.903C364.194 140.322 364.448 140.577 364.448 140.868V148.362C364.412 148.653 364.194 148.907 363.867 148.907ZM329.177 147.816H363.358V141.413H329.177V147.816Z" fill="#0B0F19"/>
<path d="M98.7303 26.2057C105.269 29.989 113.66 27.7336 117.438 21.1856C121.215 14.6376 118.963 6.23438 112.425 2.4511C105.886 -1.33218 97.4953 0.923235 93.7175 7.47122C89.9397 14.0192 92.1918 22.4225 98.7303 26.2057Z" fill="white"/>
<path d="M105.56 28.5727C103.09 28.5727 100.656 27.9179 98.4769 26.6446C91.6841 22.7158 89.323 13.9852 93.2461 7.14619C95.135 3.83582 98.2226 1.47128 101.891 0.489078C105.56 -0.49312 109.411 0.0161679 112.716 1.90781C116.022 3.79945 118.383 6.89155 119.364 10.5657C120.344 14.2398 119.836 18.0959 117.947 21.4062C116.058 24.7166 112.97 27.0812 109.302 28.0634C108.03 28.4271 106.795 28.5727 105.56 28.5727ZM105.597 1.14388C104.47 1.14388 103.308 1.28939 102.182 1.58041C98.8038 2.48985 95.9341 4.67251 94.1905 7.72824C90.558 14.0216 92.7375 22.0974 99.0217 25.7352C102.073 27.4813 105.597 27.9542 109.011 27.0448C112.389 26.1353 115.259 23.9527 117.003 20.897C118.746 17.8412 119.218 14.3126 118.31 10.8931C117.402 7.50997 115.223 4.63613 112.171 2.89001C110.137 1.72592 107.885 1.14388 105.597 1.14388Z" fill="#565973"/>
<path d="M106.468 20.8981C106.323 20.8981 106.214 20.8617 106.105 20.7525L100.547 15.5505C100.33 15.3323 100.33 15.0049 100.511 14.7866C100.729 14.5683 101.056 14.5683 101.274 14.7502L106.868 19.9522C107.086 20.1705 107.086 20.4979 106.904 20.7162C106.759 20.8617 106.614 20.8981 106.468 20.8981Z" fill="#565973"/>
<path d="M111.373 19.2594C111.119 19.2594 110.901 19.0775 110.828 18.8228L109.629 12.0566C109.593 11.7656 109.775 11.4746 110.065 11.4382C110.356 11.3654 110.646 11.5837 110.683 11.8747L111.881 18.641C111.918 18.932 111.736 19.223 111.446 19.2594C111.446 19.2594 111.409 19.2594 111.373 19.2594Z" fill="#565973"/>
<path d="M99.6041 12.4615C99.3135 12.4615 99.0593 12.2433 99.0593 11.9523C99.0593 11.8431 98.9866 9.04204 100.73 8.16898C101.929 7.58693 103.055 8.42362 103.745 9.29669C104.435 8.27811 105.743 6.56836 107.087 6.38647C108.649 6.16821 109.957 8.60551 110.211 9.1148C110.356 9.36944 110.247 9.69684 109.957 9.84235C109.702 9.98786 109.376 9.87873 109.23 9.58771C108.758 8.64189 107.814 7.40505 107.232 7.4778C106.252 7.62331 104.871 9.4422 104.217 10.5699C104.108 10.7518 103.927 10.8246 103.745 10.8246C103.564 10.8246 103.382 10.7154 103.273 10.5699C103.273 10.5335 102.147 8.67827 101.166 9.15118C100.04 9.69684 100.113 11.8795 100.113 11.9159C100.149 12.1705 99.9311 12.4252 99.6041 12.4615Z" fill="#565973"/>
<path d="M116.857 23.1188C116.857 23.1188 119.036 25.6288 118.019 27.0476C117.002 28.4299 105.923 32.4678 104.361 31.7767C102.799 31.0855 102.981 27.8115 102.981 27.8115C102.981 27.8115 107.994 28.539 110.718 27.0476C113.515 25.5197 116.857 23.1188 116.857 23.1188Z" fill="white"/>
<path d="M104.87 32.3558C104.579 32.3558 104.325 32.3195 104.144 32.2467C102.291 31.41 102.436 28.136 102.436 27.7359C102.436 27.5904 102.509 27.4449 102.654 27.3357C102.763 27.2266 102.908 27.1902 103.09 27.2266C103.126 27.2266 107.921 27.9178 110.5 26.5354C113.188 25.0439 116.53 22.6794 116.567 22.6794C116.785 22.5339 117.112 22.5703 117.293 22.7521C117.547 23.0432 119.727 25.6624 118.492 27.3357C117.475 28.7181 107.994 32.3558 104.87 32.3558ZM103.562 28.4271C103.599 29.4093 103.817 30.9371 104.616 31.2645C105.851 31.8102 116.639 28.0269 117.62 26.7173C118.129 26.0261 117.329 24.6438 116.785 23.8799C115.804 24.571 113.225 26.3172 111.045 27.5176C108.684 28.7908 105.015 28.5726 103.562 28.4271Z" fill="#565973"/>
<path d="M116.604 28.5385C116.604 28.5385 119.074 30.1391 117.984 31.485C116.894 32.831 107.886 35.9595 106.651 34.177C105.743 32.7946 106.178 31.7761 107.341 31.4487C109.23 30.9394 116.604 28.5385 116.604 28.5385Z" fill="white"/>
<path d="M108.358 35.2693C108.249 35.2693 108.177 35.2693 108.104 35.2693C107.196 35.233 106.542 34.9783 106.215 34.469C105.489 33.4141 105.561 32.6138 105.743 32.1409C105.961 31.5588 106.506 31.1223 107.196 30.904C109.048 30.3947 116.35 28.0302 116.422 28.0302C116.568 27.9938 116.749 27.9938 116.895 28.1029C117.076 28.2121 118.565 29.2306 118.783 30.4675C118.856 30.9768 118.747 31.4497 118.42 31.8498C117.367 33.1231 111.446 35.2693 108.358 35.2693ZM116.495 29.1579C115.151 29.5944 109.194 31.5224 107.45 31.9953C107.196 32.0681 106.833 32.2136 106.724 32.541C106.578 32.8684 106.724 33.3413 107.087 33.887C107.123 33.9597 107.341 34.1416 108.104 34.178C111.01 34.3235 116.822 32.0317 117.548 31.1587C117.694 30.9768 117.73 30.8313 117.694 30.6494C117.621 30.0673 116.931 29.4489 116.495 29.1579Z" fill="#565973"/>
<path d="M116.965 32.6104L118.818 38.2853C118.818 38.2853 113.878 40.5043 113.151 39.9586C112.388 39.413 110.209 34.8294 110.209 34.8294L116.965 32.6104Z" fill="white"/>
<path d="M113.479 40.5392C113.152 40.5392 112.934 40.4664 112.789 40.3937C111.989 39.8116 110.21 36.1739 109.701 35.0462C109.628 34.9007 109.628 34.7551 109.701 34.6096C109.774 34.4641 109.883 34.355 110.028 34.3186L116.784 32.0996C116.93 32.0632 117.075 32.0632 117.184 32.136C117.329 32.2087 117.402 32.3178 117.438 32.4634L119.291 38.1383C119.363 38.3929 119.254 38.6839 119 38.7931C115.949 40.139 114.351 40.5392 113.479 40.5392ZM113.406 39.4842C113.915 39.5934 116.167 38.8294 118.128 37.9928L116.603 33.3L110.936 35.1553C111.917 37.0833 113.007 39.1205 113.406 39.4842Z" fill="#565973"/>
<defs>
<linearGradient id="paint0_linear_20005153_3936" x1="181.297" y1="114.698" x2="305.637" y2="114.698" gradientUnits="userSpaceOnUse">
<stop stop-color="#6366F1"/>
<stop offset="0.5" stop-color="#8B5CF6"/>
<stop offset="1" stop-color="#D946EF"/>
</linearGradient>
</defs>
</svg>
