<svg width="122" height="44" viewBox="0 0 122 44" fill="none" xmlns="http://www.w3.org/2000/svg">
<path d="M60.6802 29.6486C61.4306 29.6486 62.1571 29.5531 62.8598 29.3621C63.5692 29.1711 64.2036 28.8846 64.763 28.5026C65.3224 28.1137 65.7658 27.626 66.0932 27.0393C66.4275 26.4458 66.5946 25.7534 66.5946 24.9621C66.5946 24.2186 66.4548 23.6046 66.1751 23.1203C65.9022 22.6359 65.5509 22.2471 65.1211 21.9538C64.6982 21.6536 64.2548 21.4217 63.7909 21.2579C63.327 21.0874 62.9041 20.951 62.5221 20.8486L59.9639 20.1528C59.6501 20.071 59.3432 19.9686 59.043 19.8458C58.7429 19.7231 58.4939 19.5627 58.296 19.3649C58.0982 19.1603 57.9993 18.8976 57.9993 18.577C57.9993 18.2291 58.1187 17.9289 58.3574 17.6765C58.603 17.4241 58.9168 17.2331 59.2988 17.1035C59.6877 16.9671 60.1004 16.9057 60.537 16.9193C61.2055 16.9398 61.8194 17.1376 62.3788 17.5128C62.9382 17.888 63.2998 18.4338 63.4635 19.15L66.4718 18.6384C66.1171 17.2536 65.4281 16.1928 64.4049 15.4561C63.3816 14.7193 62.106 14.3407 60.5779 14.3203C59.5683 14.3134 58.6474 14.4703 57.8151 14.791C56.9829 15.1116 56.3177 15.5993 55.8198 16.2542C55.3218 16.9091 55.0728 17.7311 55.0728 18.7203C55.0728 19.4229 55.1887 20.0062 55.4207 20.47C55.6594 20.9271 55.9562 21.2955 56.3109 21.5751C56.6656 21.8548 57.0306 22.0697 57.4058 22.2198C57.7878 22.3699 58.1221 22.4858 58.4086 22.5677L62.2356 23.6933C62.8086 23.8638 63.1906 24.0787 63.3816 24.3379C63.5726 24.5903 63.6681 24.8666 63.6681 25.1668C63.6681 25.5761 63.5283 25.9206 63.2486 26.2003C62.9757 26.48 62.6244 26.6914 62.1946 26.8347C61.7649 26.9779 61.3215 27.0496 60.8644 27.0496C60.0458 27.0496 59.3159 26.821 58.6746 26.364C58.0334 25.9069 57.6105 25.2555 57.4058 24.4096L54.4998 24.8393C54.6498 25.8353 55.0046 26.6948 55.5639 27.4179C56.1301 28.1342 56.8498 28.6868 57.723 29.0756C58.603 29.4576 59.5887 29.6486 60.6802 29.6486Z" fill="white"/>
<path d="M69.0484 16.7556H71.8316V14.2998H69.0484V16.7556ZM69.0484 29.3417H71.8316V18.2905H69.0484V29.3417Z" fill="white"/>
<path d="M75.104 29.3417H77.8872V14.2998H75.104V29.3417Z" fill="white"/>
<path d="M81.1596 16.7556H83.9428V14.2998H81.1596V16.7556ZM81.1596 29.3417H83.9428V18.2905H81.1596V29.3417Z" fill="white"/>
<path d="M91.8812 29.6486C93.1637 29.6486 94.2415 29.3314 95.1147 28.697C95.9879 28.0626 96.5813 27.1587 96.8951 25.9854L94.0505 25.3919C93.8868 25.924 93.6412 26.3333 93.3137 26.6198C92.9863 26.9063 92.5088 27.0496 91.8812 27.0496C91.0421 27.0496 90.4077 26.7528 89.9779 26.1593C89.555 25.559 89.3435 24.7779 89.3435 23.8161C89.3435 22.8951 89.5448 22.1277 89.9472 21.5138C90.3565 20.893 91.0012 20.5826 91.8812 20.5826C92.3928 20.5826 92.8499 20.7429 93.2523 21.0635C93.6617 21.3841 93.9482 21.831 94.1119 22.404L96.8951 21.6672C96.6496 20.528 96.0834 19.631 95.1965 18.9761C94.3165 18.3144 93.2251 17.9835 91.9221 17.9835C90.7965 17.9835 89.821 18.2359 88.9956 18.7407C88.1702 19.2455 87.5289 19.9379 87.0719 20.8179C86.6217 21.6979 86.3965 22.6973 86.3965 23.8161C86.3965 24.9212 86.6148 25.9138 87.0514 26.7938C87.488 27.6737 88.1156 28.3696 88.9342 28.8812C89.7528 29.3928 90.7351 29.6486 91.8812 29.6486Z" fill="white"/>
<path d="M103.615 29.6486C104.72 29.6486 105.692 29.4031 106.531 28.9119C107.377 28.4139 108.036 27.7283 108.506 26.8551C108.984 25.9751 109.222 24.9621 109.222 23.8161C109.222 22.6769 108.987 21.6707 108.516 20.7975C108.046 19.9175 107.387 19.2285 106.542 18.7305C105.702 18.2325 104.727 17.9835 103.615 17.9835C102.524 17.9835 101.558 18.2291 100.719 18.7203C99.8802 19.2114 99.2219 19.897 98.7444 20.777C98.2668 21.6502 98.0281 22.6632 98.0281 23.8161C98.0281 24.9553 98.26 25.9649 98.7239 26.8449C99.1946 27.7181 99.8495 28.4037 100.689 28.9017C101.528 29.3996 102.503 29.6486 103.615 29.6486ZM103.615 27.0496C102.749 27.0496 102.09 26.7596 101.64 26.1798C101.197 25.5931 100.975 24.8052 100.975 23.8161C100.975 22.8542 101.187 22.0765 101.609 21.4831C102.039 20.8827 102.708 20.5826 103.615 20.5826C104.495 20.5826 105.157 20.8759 105.6 21.4626C106.05 22.0493 106.276 22.8338 106.276 23.8161C106.276 24.7643 106.054 25.542 105.61 26.1491C105.174 26.7494 104.509 27.0496 103.615 27.0496Z" fill="white"/>
<path d="M111.452 29.3417H114.276V23.7342C114.276 23.0452 114.351 22.4927 114.502 22.0765C114.658 21.6604 114.856 21.3466 115.095 21.1351C115.334 20.9169 115.59 20.7702 115.862 20.6951C116.135 20.6201 116.391 20.5826 116.63 20.5826C117.223 20.5826 117.68 20.7156 118.001 20.9817C118.328 21.2477 118.564 21.5786 118.707 21.9742C118.85 22.3699 118.936 22.7655 118.963 23.1612C118.99 23.55 119.004 23.8707 119.004 24.1231V29.3417H121.828V23.1407C121.828 22.9565 121.814 22.6632 121.787 22.2607C121.76 21.8582 121.681 21.4148 121.552 20.9305C121.422 20.4393 121.204 19.9686 120.897 19.5184C120.597 19.0682 120.174 18.6964 119.628 18.4031C119.082 18.1097 118.376 17.9631 117.51 17.9631C116.712 17.9631 116.016 18.0961 115.422 18.3621C114.829 18.6282 114.331 18.9829 113.929 19.4263V18.2905H111.452V29.3417Z" fill="white"/>
<path d="M10.2174 22L4.08696 12.2791L22.9891 0L22.4783 10.7442L10.2174 22Z" fill="url(#paint0_linear_20005153_6690)"/>
<path d="M22.4783 10.7442L22.9891 0L42.4022 8.69767L38.3152 26.093L12.2609 30.186L10.2174 22L22.4783 10.7442Z" fill="url(#paint1_linear_20005153_6690)"/>
<path d="M31.163 44L12.2609 30.186L38.3152 26.093L42.913 30.6977L31.163 44Z" fill="url(#paint2_linear_20005153_6690)"/>
<path d="M38.3152 26.093L42.913 30.6977L47 17.907L42.4022 8.69767L38.3152 26.093Z" fill="url(#paint3_linear_20005153_6690)"/>
<path d="M12.2609 30.186L31.163 44L12.2609 41.4418L0 26.6046L12.2609 30.186Z" fill="url(#paint4_linear_20005153_6690)"/>
<path d="M4.08696 12.2791L0 26.6046L12.2609 30.186L10.2174 22L4.08696 12.2791Z" fill="url(#paint5_linear_20005153_6690)"/>
<path d="M31.1636 43.9997L12.2615 30.1858L38.3158 26.0928L42.9136 30.6974L31.1636 43.9997Z" fill="black" fill-opacity="0.17"/>
<path d="M38.3147 26.0926L42.9125 30.6973L46.9995 17.9066L42.4017 8.69727L38.3147 26.0926Z" fill="black" fill-opacity="0.1"/>
<path d="M12.2609 30.1859L31.163 43.9998L12.2609 41.4417L0 26.6045L12.2609 30.1859Z" fill="black" fill-opacity="0.23"/>
<path d="M4.08696 12.2793L0 26.6049L12.2609 30.1863L10.2174 22.0002L4.08696 12.2793Z" fill="#C0C0C0" fill-opacity="0.05"/>
<path d="M10.2174 22L4.08696 12.2791L22.9891 0L22.4783 10.7442L10.2174 22Z" fill="white" fill-opacity="0.15"/>
<path fill-rule="evenodd" clip-rule="evenodd" d="M10.2174 22L22.4783 10.7442L22.9891 0L4.08696 12.2791L10.2174 22ZM10.2807 21.5255L22.1781 10.6033L22.6545 0.583262L4.50783 12.3716L10.2807 21.5255Z" fill="white" fill-opacity="0.15"/>
<path fill-rule="evenodd" clip-rule="evenodd" d="M22.7784 10.885L10.559 22.1028L12.4903 29.8393L38.0641 25.8217L42.0458 8.87429L23.2739 0.4639L22.7784 10.885ZM22.4783 10.7442L10.2174 22L12.2609 30.186L38.3152 26.093L42.4022 8.69767L22.9891 0L22.4783 10.7442Z" fill="white" fill-opacity="0.15"/>
<path fill-rule="evenodd" clip-rule="evenodd" d="M31.1183 43.5873L42.4924 30.7105L38.2087 26.4205L13.0388 30.3745L31.1183 43.5873ZM31.163 44L42.913 30.6977L38.3152 26.093L12.2609 30.186L31.163 44Z" fill="white" fill-opacity="0.15"/>
<path fill-rule="evenodd" clip-rule="evenodd" d="M42.913 30.6977L47 17.907L42.4022 8.69767L38.3152 26.093L42.913 30.6977ZM38.6527 25.9969L42.7743 30.1246L46.67 17.9325L42.5066 9.59332L38.6527 25.9969Z" fill="white" fill-opacity="0.15"/>
<path fill-rule="evenodd" clip-rule="evenodd" d="M12.1235 30.4657L0.872793 27.1793L12.4206 41.1537L30.0047 43.5334L12.1235 30.4657ZM12.2609 30.186L0 26.6046L12.2609 41.4418L31.163 44L12.2609 30.186Z" fill="white" fill-opacity="0.15"/>
<path fill-rule="evenodd" clip-rule="evenodd" d="M0.378475 26.3954L11.834 29.7416L9.93196 22.1222L4.19353 13.0229L0.378475 26.3954ZM0 26.6046L12.2609 30.186L10.2174 22L4.08696 12.2791L0 26.6046Z" fill="white" fill-opacity="0.15"/>
<path d="M23.6972 19.0159H27.1656C27.1154 15.9654 24.6082 13.8593 20.7971 13.8593C17.0446 13.8593 14.2949 15.9319 14.3117 19.0409C14.3033 21.5649 16.0835 23.0108 18.9752 23.7045L20.8389 24.1725C22.7026 24.6238 23.739 25.1587 23.7473 26.312C23.739 27.5656 22.5522 28.4181 20.7135 28.4181C18.8331 28.4181 17.4792 27.5489 17.3622 25.8356H13.8604C13.9523 29.538 16.6016 31.4519 20.7553 31.4519C24.9341 31.4519 27.3912 29.4545 27.3996 26.3204C27.3912 23.4704 25.2433 21.9577 22.2681 21.2891L20.7303 20.9214C19.2426 20.5787 17.9973 20.0271 18.0224 18.7986C18.0224 17.6954 19.0002 16.8847 20.7721 16.8847C22.5021 16.8847 23.5635 17.6703 23.6972 19.0159Z" fill="white"/>
<path d="M32.5507 19.3026H29.3182V31.2095H32.5507V19.3026Z" fill="white"/>
<path d="M31.3458 9.90723H30.1627L28.6888 10.8404V11.9566L30.0522 11.102H30.0871V15.8607H31.3458V9.90723Z" fill="white"/>
<path d="M32.6707 14.8142H35.5282V15.8607H36.7317V14.8142H37.4701V13.8055H36.7317V9.90723H35.1561L32.6707 13.8229V14.8142ZM35.5515 13.8055H33.9381V13.759L35.505 11.2793H35.5515V13.8055Z" fill="white"/>
<defs>
<linearGradient id="paint0_linear_20005153_6690" x1="0" y1="22.1053" x2="47" y2="22.1053" gradientUnits="userSpaceOnUse">
<stop stop-color="#6366F1"/>
<stop offset="0.5" stop-color="#8B5CF6"/>
<stop offset="1" stop-color="#D946EF"/>
</linearGradient>
<linearGradient id="paint1_linear_20005153_6690" x1="0" y1="22.1053" x2="47" y2="22.1053" gradientUnits="userSpaceOnUse">
<stop stop-color="#6366F1"/>
<stop offset="0.5" stop-color="#8B5CF6"/>
<stop offset="1" stop-color="#D946EF"/>
</linearGradient>
<linearGradient id="paint2_linear_20005153_6690" x1="0" y1="22.1053" x2="47" y2="22.1053" gradientUnits="userSpaceOnUse">
<stop stop-color="#6366F1"/>
<stop offset="0.5" stop-color="#8B5CF6"/>
<stop offset="1" stop-color="#D946EF"/>
</linearGradient>
<linearGradient id="paint3_linear_20005153_6690" x1="0" y1="22.1053" x2="47" y2="22.1053" gradientUnits="userSpaceOnUse">
<stop stop-color="#6366F1"/>
<stop offset="0.5" stop-color="#8B5CF6"/>
<stop offset="1" stop-color="#D946EF"/>
</linearGradient>
<linearGradient id="paint4_linear_20005153_6690" x1="0" y1="22.1053" x2="47" y2="22.1053" gradientUnits="userSpaceOnUse">
<stop stop-color="#6366F1"/>
<stop offset="0.5" stop-color="#8B5CF6"/>
<stop offset="1" stop-color="#D946EF"/>
</linearGradient>
<linearGradient id="paint5_linear_20005153_6690" x1="0" y1="22.1053" x2="47" y2="22.1053" gradientUnits="userSpaceOnUse">
<stop stop-color="#6366F1"/>
<stop offset="0.5" stop-color="#8B5CF6"/>
<stop offset="1" stop-color="#D946EF"/>
</linearGradient>
</defs>
</svg>
